<mxfile host="app.diagrams.net" modified="2024-06-19T10:18:09.328Z" agent="Mozilla/5.0 (Macintosh; Intel Mac OS X 10_15_7) AppleWebKit/537.36 (KHTML, like Gecko) Chrome/126.0.0.0 Safari/537.36" etag="HFBh4-N6t4mgWbvLAJhs" version="24.5.5" type="device">
  <diagram name="Page-1" id="3_qAfCeMi1pS8mAeq-Ui">
    <mxGraphModel dx="2233" dy="3207" grid="1" gridSize="10" guides="1" tooltips="1" connect="1" arrows="1" fold="1" page="1" pageScale="1" pageWidth="827" pageHeight="1169" math="0" shadow="0">
      <root>
        <mxCell id="0" />
        <mxCell id="1" parent="0" />
        <mxCell id="Sa6RIAV5YEHSp7vAq8mL-81" value="" style="whiteSpace=wrap;html=1;fillColor=#fff2cc;strokeColor=#d6b656;" vertex="1" parent="1">
          <mxGeometry x="1280" y="-638" width="1650" height="1280" as="geometry" />
        </mxCell>
        <mxCell id="Sa6RIAV5YEHSp7vAq8mL-87" value="" style="edgeStyle=none;orthogonalLoop=1;jettySize=auto;html=1;rounded=0;entryX=0.993;entryY=0.996;entryDx=0;entryDy=0;entryPerimeter=0;" edge="1" parent="1" target="Sa6RIAV5YEHSp7vAq8mL-31">
          <mxGeometry width="100" relative="1" as="geometry">
            <mxPoint x="2120" y="-548" as="sourcePoint" />
            <mxPoint x="2092.5" y="-528" as="targetPoint" />
            <Array as="points">
              <mxPoint x="2080" y="-548" />
              <mxPoint x="2080" y="-488" />
            </Array>
          </mxGeometry>
        </mxCell>
        <mxCell id="Sa6RIAV5YEHSp7vAq8mL-86" value="" style="edgeStyle=none;orthogonalLoop=1;jettySize=auto;html=1;rounded=0;entryX=0.611;entryY=0.015;entryDx=0;entryDy=0;entryPerimeter=0;" edge="1" parent="1" target="Sa6RIAV5YEHSp7vAq8mL-18">
          <mxGeometry width="100" relative="1" as="geometry">
            <mxPoint x="2120" y="-538" as="sourcePoint" />
            <mxPoint x="2224.5" y="-518" as="targetPoint" />
            <Array as="points">
              <mxPoint x="2180" y="-538" />
            </Array>
          </mxGeometry>
        </mxCell>
        <mxCell id="Sa6RIAV5YEHSp7vAq8mL-70" value="" style="whiteSpace=wrap;html=1;fillColor=#dae8fc;strokeColor=#6c8ebf;" vertex="1" parent="1">
          <mxGeometry x="2562.62" y="-136" width="150" height="150" as="geometry" />
        </mxCell>
        <mxCell id="Sa6RIAV5YEHSp7vAq8mL-59" value="" style="whiteSpace=wrap;html=1;fillColor=#dae8fc;strokeColor=#6c8ebf;" vertex="1" parent="1">
          <mxGeometry x="2070" y="462" width="150" height="150" as="geometry" />
        </mxCell>
        <mxCell id="Sa6RIAV5YEHSp7vAq8mL-41" value="" style="whiteSpace=wrap;html=1;fillColor=#dae8fc;strokeColor=#6c8ebf;" vertex="1" parent="1">
          <mxGeometry x="1510" y="-136" width="150" height="150" as="geometry" />
        </mxCell>
        <mxCell id="Sa6RIAV5YEHSp7vAq8mL-1" value="" style="whiteSpace=wrap;html=1;fillColor=#dae8fc;strokeColor=#6c8ebf;" vertex="1" parent="1">
          <mxGeometry x="1905" y="-428" width="450" height="200" as="geometry" />
        </mxCell>
        <mxCell id="Sa6RIAV5YEHSp7vAq8mL-6" value="" style="whiteSpace=wrap;html=1;fillColor=#d5e8d4;strokeColor=#82b366;" vertex="1" parent="1">
          <mxGeometry x="1925" y="-408" width="180" height="130" as="geometry" />
        </mxCell>
        <mxCell id="Sa6RIAV5YEHSp7vAq8mL-2" value="node-application-instance-1" style="text;html=1;align=center;verticalAlign=middle;resizable=0;points=[];autosize=1;strokeColor=none;fillColor=none;" vertex="1" parent="1">
          <mxGeometry x="1905" y="-458" width="170" height="30" as="geometry" />
        </mxCell>
        <mxCell id="Sa6RIAV5YEHSp7vAq8mL-5" value="" style="outlineConnect=0;dashed=0;verticalLabelPosition=bottom;verticalAlign=top;align=center;html=1;shape=mxgraph.aws3.android;fillColor=#8CC64F;gradientColor=none;" vertex="1" parent="1">
          <mxGeometry x="1978.25" y="-385" width="73.5" height="84" as="geometry" />
        </mxCell>
        <mxCell id="Sa6RIAV5YEHSp7vAq8mL-7" value="" style="whiteSpace=wrap;html=1;fillColor=#d5e8d4;strokeColor=#82b366;" vertex="1" parent="1">
          <mxGeometry x="2185" y="-408" width="140" height="130" as="geometry" />
        </mxCell>
        <mxCell id="Sa6RIAV5YEHSp7vAq8mL-9" value="" style="shape=image;verticalLabelPosition=bottom;labelBackgroundColor=default;verticalAlign=top;aspect=fixed;imageAspect=0;image=https://upload.wikimedia.org/wikipedia/commons/thumb/3/38/Prometheus_software_logo.svg/2066px-Prometheus_software_logo.svg.png;" vertex="1" parent="1">
          <mxGeometry x="2224.5" y="-373.24" width="61" height="60.49" as="geometry" />
        </mxCell>
        <mxCell id="Sa6RIAV5YEHSp7vAq8mL-10" value="Express app" style="text;html=1;align=center;verticalAlign=middle;resizable=0;points=[];autosize=1;strokeColor=none;fillColor=none;" vertex="1" parent="1">
          <mxGeometry x="1970" y="-268" width="90" height="30" as="geometry" />
        </mxCell>
        <mxCell id="Sa6RIAV5YEHSp7vAq8mL-11" value="&lt;div style=&quot;background-color: rgb(31, 31, 31); line-height: 29px;&quot;&gt;&lt;br&gt;&lt;/div&gt;" style="text;html=1;align=center;verticalAlign=middle;resizable=0;points=[];autosize=1;strokeColor=none;fillColor=none;" vertex="1" parent="1">
          <mxGeometry x="2255" y="-215" width="20" height="40" as="geometry" />
        </mxCell>
        <mxCell id="Sa6RIAV5YEHSp7vAq8mL-13" value="prometheus client" style="text;html=1;align=center;verticalAlign=middle;resizable=0;points=[];autosize=1;strokeColor=none;fillColor=none;" vertex="1" parent="1">
          <mxGeometry x="2195" y="-268" width="120" height="30" as="geometry" />
        </mxCell>
        <mxCell id="Sa6RIAV5YEHSp7vAq8mL-14" value="/health" style="text;html=1;align=center;verticalAlign=middle;resizable=0;points=[];autosize=1;strokeColor=none;fillColor=none;" vertex="1" parent="1">
          <mxGeometry x="2115" y="-373.24" width="60" height="30" as="geometry" />
        </mxCell>
        <mxCell id="Sa6RIAV5YEHSp7vAq8mL-16" value="" style="edgeStyle=none;orthogonalLoop=1;jettySize=auto;html=1;rounded=0;entryX=0;entryY=0.5;entryDx=0;entryDy=0;exitX=1;exitY=0.5;exitDx=0;exitDy=0;" edge="1" parent="1" source="Sa6RIAV5YEHSp7vAq8mL-6" target="Sa6RIAV5YEHSp7vAq8mL-7">
          <mxGeometry width="100" relative="1" as="geometry">
            <mxPoint x="2105" y="-318" as="sourcePoint" />
            <mxPoint x="2205" y="-318" as="targetPoint" />
            <Array as="points" />
          </mxGeometry>
        </mxCell>
        <mxCell id="Sa6RIAV5YEHSp7vAq8mL-18" value="" style="whiteSpace=wrap;html=1;fillColor=#dae8fc;strokeColor=#6c8ebf;" vertex="1" parent="1">
          <mxGeometry x="1905" y="-161" width="450" height="200" as="geometry" />
        </mxCell>
        <mxCell id="Sa6RIAV5YEHSp7vAq8mL-19" value="" style="whiteSpace=wrap;html=1;fillColor=#d5e8d4;strokeColor=#82b366;" vertex="1" parent="1">
          <mxGeometry x="1925" y="-141" width="180" height="130" as="geometry" />
        </mxCell>
        <mxCell id="Sa6RIAV5YEHSp7vAq8mL-20" value="node-application-instance-2" style="text;html=1;align=center;verticalAlign=middle;resizable=0;points=[];autosize=1;strokeColor=none;fillColor=none;" vertex="1" parent="1">
          <mxGeometry x="1905" y="-191" width="170" height="30" as="geometry" />
        </mxCell>
        <mxCell id="Sa6RIAV5YEHSp7vAq8mL-21" value="" style="outlineConnect=0;dashed=0;verticalLabelPosition=bottom;verticalAlign=top;align=center;html=1;shape=mxgraph.aws3.android;fillColor=#8CC64F;gradientColor=none;" vertex="1" parent="1">
          <mxGeometry x="1978.25" y="-118" width="73.5" height="84" as="geometry" />
        </mxCell>
        <mxCell id="Sa6RIAV5YEHSp7vAq8mL-22" value="" style="whiteSpace=wrap;html=1;fillColor=#d5e8d4;strokeColor=#82b366;" vertex="1" parent="1">
          <mxGeometry x="2185" y="-141" width="140" height="130" as="geometry" />
        </mxCell>
        <mxCell id="Sa6RIAV5YEHSp7vAq8mL-23" value="" style="shape=image;verticalLabelPosition=bottom;labelBackgroundColor=default;verticalAlign=top;aspect=fixed;imageAspect=0;image=https://upload.wikimedia.org/wikipedia/commons/thumb/3/38/Prometheus_software_logo.svg/2066px-Prometheus_software_logo.svg.png;" vertex="1" parent="1">
          <mxGeometry x="2224.5" y="-106.24000000000001" width="61" height="60.49" as="geometry" />
        </mxCell>
        <mxCell id="Sa6RIAV5YEHSp7vAq8mL-24" value="Express app" style="text;html=1;align=center;verticalAlign=middle;resizable=0;points=[];autosize=1;strokeColor=none;fillColor=none;" vertex="1" parent="1">
          <mxGeometry x="1970" y="-1" width="90" height="30" as="geometry" />
        </mxCell>
        <mxCell id="Sa6RIAV5YEHSp7vAq8mL-25" value="&lt;div style=&quot;background-color: rgb(31, 31, 31); line-height: 29px;&quot;&gt;&lt;br&gt;&lt;/div&gt;" style="text;html=1;align=center;verticalAlign=middle;resizable=0;points=[];autosize=1;strokeColor=none;fillColor=none;" vertex="1" parent="1">
          <mxGeometry x="2255" y="52" width="20" height="40" as="geometry" />
        </mxCell>
        <mxCell id="Sa6RIAV5YEHSp7vAq8mL-26" value="prometheus client" style="text;html=1;align=center;verticalAlign=middle;resizable=0;points=[];autosize=1;strokeColor=none;fillColor=none;" vertex="1" parent="1">
          <mxGeometry x="2195" y="-1" width="120" height="30" as="geometry" />
        </mxCell>
        <mxCell id="Sa6RIAV5YEHSp7vAq8mL-27" value="/health" style="text;html=1;align=center;verticalAlign=middle;resizable=0;points=[];autosize=1;strokeColor=none;fillColor=none;" vertex="1" parent="1">
          <mxGeometry x="2115" y="-106.24000000000001" width="60" height="30" as="geometry" />
        </mxCell>
        <mxCell id="Sa6RIAV5YEHSp7vAq8mL-28" value="" style="edgeStyle=none;orthogonalLoop=1;jettySize=auto;html=1;rounded=0;entryX=0;entryY=0.5;entryDx=0;entryDy=0;exitX=1;exitY=0.5;exitDx=0;exitDy=0;" edge="1" parent="1" source="Sa6RIAV5YEHSp7vAq8mL-19" target="Sa6RIAV5YEHSp7vAq8mL-22">
          <mxGeometry width="100" relative="1" as="geometry">
            <mxPoint x="2105" y="-51" as="sourcePoint" />
            <mxPoint x="2205" y="-51" as="targetPoint" />
            <Array as="points" />
          </mxGeometry>
        </mxCell>
        <mxCell id="Sa6RIAV5YEHSp7vAq8mL-29" value="" style="whiteSpace=wrap;html=1;fillColor=#dae8fc;strokeColor=#6c8ebf;" vertex="1" parent="1">
          <mxGeometry x="1905" y="116" width="450" height="200" as="geometry" />
        </mxCell>
        <mxCell id="Sa6RIAV5YEHSp7vAq8mL-30" value="" style="whiteSpace=wrap;html=1;fillColor=#d5e8d4;strokeColor=#82b366;" vertex="1" parent="1">
          <mxGeometry x="1925" y="136" width="180" height="130" as="geometry" />
        </mxCell>
        <mxCell id="Sa6RIAV5YEHSp7vAq8mL-31" value="node-application-instance-3" style="text;html=1;align=center;verticalAlign=middle;resizable=0;points=[];autosize=1;strokeColor=none;fillColor=none;" vertex="1" parent="1">
          <mxGeometry x="1905" y="86" width="170" height="30" as="geometry" />
        </mxCell>
        <mxCell id="Sa6RIAV5YEHSp7vAq8mL-32" value="" style="outlineConnect=0;dashed=0;verticalLabelPosition=bottom;verticalAlign=top;align=center;html=1;shape=mxgraph.aws3.android;fillColor=#8CC64F;gradientColor=none;" vertex="1" parent="1">
          <mxGeometry x="1978.25" y="159" width="73.5" height="84" as="geometry" />
        </mxCell>
        <mxCell id="Sa6RIAV5YEHSp7vAq8mL-33" value="" style="whiteSpace=wrap;html=1;fillColor=#d5e8d4;strokeColor=#82b366;" vertex="1" parent="1">
          <mxGeometry x="2185" y="136" width="140" height="130" as="geometry" />
        </mxCell>
        <mxCell id="Sa6RIAV5YEHSp7vAq8mL-34" value="" style="shape=image;verticalLabelPosition=bottom;labelBackgroundColor=default;verticalAlign=top;aspect=fixed;imageAspect=0;image=https://upload.wikimedia.org/wikipedia/commons/thumb/3/38/Prometheus_software_logo.svg/2066px-Prometheus_software_logo.svg.png;" vertex="1" parent="1">
          <mxGeometry x="2224.5" y="170.76" width="61" height="60.49" as="geometry" />
        </mxCell>
        <mxCell id="Sa6RIAV5YEHSp7vAq8mL-35" value="Express app" style="text;html=1;align=center;verticalAlign=middle;resizable=0;points=[];autosize=1;strokeColor=none;fillColor=none;" vertex="1" parent="1">
          <mxGeometry x="1970" y="276" width="90" height="30" as="geometry" />
        </mxCell>
        <mxCell id="Sa6RIAV5YEHSp7vAq8mL-36" value="&lt;div style=&quot;background-color: rgb(31, 31, 31); line-height: 29px;&quot;&gt;&lt;br&gt;&lt;/div&gt;" style="text;html=1;align=center;verticalAlign=middle;resizable=0;points=[];autosize=1;strokeColor=none;fillColor=none;" vertex="1" parent="1">
          <mxGeometry x="2255" y="329" width="20" height="40" as="geometry" />
        </mxCell>
        <mxCell id="Sa6RIAV5YEHSp7vAq8mL-37" value="prometheus client" style="text;html=1;align=center;verticalAlign=middle;resizable=0;points=[];autosize=1;strokeColor=none;fillColor=none;" vertex="1" parent="1">
          <mxGeometry x="2195" y="276" width="120" height="30" as="geometry" />
        </mxCell>
        <mxCell id="Sa6RIAV5YEHSp7vAq8mL-38" value="/health" style="text;html=1;align=center;verticalAlign=middle;resizable=0;points=[];autosize=1;strokeColor=none;fillColor=none;" vertex="1" parent="1">
          <mxGeometry x="2115" y="170.76" width="60" height="30" as="geometry" />
        </mxCell>
        <mxCell id="Sa6RIAV5YEHSp7vAq8mL-39" value="" style="edgeStyle=none;orthogonalLoop=1;jettySize=auto;html=1;rounded=0;entryX=0;entryY=0.5;entryDx=0;entryDy=0;exitX=1;exitY=0.5;exitDx=0;exitDy=0;" edge="1" parent="1" source="Sa6RIAV5YEHSp7vAq8mL-30" target="Sa6RIAV5YEHSp7vAq8mL-33">
          <mxGeometry width="100" relative="1" as="geometry">
            <mxPoint x="2105" y="226" as="sourcePoint" />
            <mxPoint x="2205" y="226" as="targetPoint" />
            <Array as="points" />
          </mxGeometry>
        </mxCell>
        <mxCell id="Sa6RIAV5YEHSp7vAq8mL-40" value="" style="shape=image;verticalLabelPosition=bottom;labelBackgroundColor=default;verticalAlign=top;aspect=fixed;imageAspect=0;image=https://upload.wikimedia.org/wikipedia/commons/thumb/3/38/Prometheus_software_logo.svg/2066px-Prometheus_software_logo.svg.png;" vertex="1" parent="1">
          <mxGeometry x="1539" y="-119" width="93.78" height="93" as="geometry" />
        </mxCell>
        <mxCell id="Sa6RIAV5YEHSp7vAq8mL-42" value="prometheus server" style="text;html=1;align=center;verticalAlign=middle;resizable=0;points=[];autosize=1;strokeColor=none;fillColor=none;" vertex="1" parent="1">
          <mxGeometry x="1525.8899999999999" y="-16" width="120" height="30" as="geometry" />
        </mxCell>
        <mxCell id="Sa6RIAV5YEHSp7vAq8mL-43" value="" style="edgeStyle=none;orthogonalLoop=1;jettySize=auto;html=1;rounded=0;entryX=0;entryY=0.5;entryDx=0;entryDy=0;" edge="1" parent="1" target="Sa6RIAV5YEHSp7vAq8mL-1">
          <mxGeometry width="100" relative="1" as="geometry">
            <mxPoint x="1730" y="-58" as="sourcePoint" />
            <mxPoint x="1505" y="-308" as="targetPoint" />
            <Array as="points">
              <mxPoint x="1730" y="-328" />
            </Array>
          </mxGeometry>
        </mxCell>
        <mxCell id="Sa6RIAV5YEHSp7vAq8mL-47" value="" style="edgeStyle=none;orthogonalLoop=1;jettySize=auto;html=1;rounded=0;exitX=1;exitY=0.5;exitDx=0;exitDy=0;entryX=0;entryY=0.5;entryDx=0;entryDy=0;" edge="1" parent="1" source="Sa6RIAV5YEHSp7vAq8mL-41" target="Sa6RIAV5YEHSp7vAq8mL-18">
          <mxGeometry width="100" relative="1" as="geometry">
            <mxPoint x="1690" y="142" as="sourcePoint" />
            <mxPoint x="1790" y="142" as="targetPoint" />
            <Array as="points" />
          </mxGeometry>
        </mxCell>
        <mxCell id="Sa6RIAV5YEHSp7vAq8mL-48" value="" style="edgeStyle=none;orthogonalLoop=1;jettySize=auto;html=1;rounded=0;entryX=0;entryY=0.5;entryDx=0;entryDy=0;" edge="1" parent="1" target="Sa6RIAV5YEHSp7vAq8mL-29">
          <mxGeometry width="100" relative="1" as="geometry">
            <mxPoint x="1730" y="-58" as="sourcePoint" />
            <mxPoint x="1570" y="112" as="targetPoint" />
            <Array as="points">
              <mxPoint x="1730" y="216" />
            </Array>
          </mxGeometry>
        </mxCell>
        <mxCell id="Sa6RIAV5YEHSp7vAq8mL-49" value="/health" style="text;html=1;align=center;verticalAlign=middle;resizable=0;points=[];autosize=1;strokeColor=none;fillColor=none;" vertex="1" parent="1">
          <mxGeometry x="1770" y="-358" width="60" height="30" as="geometry" />
        </mxCell>
        <mxCell id="Sa6RIAV5YEHSp7vAq8mL-50" value="/health" style="text;html=1;align=center;verticalAlign=middle;resizable=0;points=[];autosize=1;strokeColor=none;fillColor=none;" vertex="1" parent="1">
          <mxGeometry x="1780" y="-91" width="60" height="30" as="geometry" />
        </mxCell>
        <mxCell id="Sa6RIAV5YEHSp7vAq8mL-51" value="/health" style="text;html=1;align=center;verticalAlign=middle;resizable=0;points=[];autosize=1;strokeColor=none;fillColor=none;" vertex="1" parent="1">
          <mxGeometry x="1780" y="186" width="60" height="30" as="geometry" />
        </mxCell>
        <mxCell id="Sa6RIAV5YEHSp7vAq8mL-52" value="For every interval of time ,&lt;div&gt;server fetches health metrics&amp;nbsp;&lt;/div&gt;&lt;div&gt;from the containers&lt;/div&gt;&lt;div&gt;by /health api call to all its clients&lt;/div&gt;&lt;div&gt;used as data source for grafana&lt;/div&gt;" style="text;html=1;align=center;verticalAlign=middle;resizable=0;points=[];autosize=1;strokeColor=none;fillColor=none;" vertex="1" parent="1">
          <mxGeometry x="1310" y="-106" width="200" height="90" as="geometry" />
        </mxCell>
        <mxCell id="Sa6RIAV5YEHSp7vAq8mL-55" value="prometheus-instance-1" style="text;html=1;align=center;verticalAlign=middle;resizable=0;points=[];autosize=1;strokeColor=none;fillColor=none;" vertex="1" parent="1">
          <mxGeometry x="1510" y="-166" width="150" height="30" as="geometry" />
        </mxCell>
        <mxCell id="Sa6RIAV5YEHSp7vAq8mL-58" value="" style="shape=image;verticalLabelPosition=bottom;labelBackgroundColor=default;verticalAlign=top;aspect=fixed;imageAspect=0;image=https://upload.wikimedia.org/wikipedia/commons/thumb/3/3b/Grafana_icon.svg/1969px-Grafana_icon.svg.png;" vertex="1" parent="1">
          <mxGeometry x="2099" y="485" width="87" height="90.47" as="geometry" />
        </mxCell>
        <mxCell id="Sa6RIAV5YEHSp7vAq8mL-60" value="grafana server" style="text;html=1;align=center;verticalAlign=middle;resizable=0;points=[];autosize=1;strokeColor=none;fillColor=none;" vertex="1" parent="1">
          <mxGeometry x="2092.5" y="582" width="100" height="30" as="geometry" />
        </mxCell>
        <mxCell id="Sa6RIAV5YEHSp7vAq8mL-61" value="grafana-1" style="text;html=1;align=center;verticalAlign=middle;resizable=0;points=[];autosize=1;strokeColor=none;fillColor=none;" vertex="1" parent="1">
          <mxGeometry x="2070" y="432" width="70" height="30" as="geometry" />
        </mxCell>
        <mxCell id="Sa6RIAV5YEHSp7vAq8mL-71" value="grafana loki server" style="text;html=1;align=center;verticalAlign=middle;resizable=0;points=[];autosize=1;strokeColor=none;fillColor=none;" vertex="1" parent="1">
          <mxGeometry x="2577.62" y="-16" width="120" height="30" as="geometry" />
        </mxCell>
        <mxCell id="Sa6RIAV5YEHSp7vAq8mL-72" value="grafana-loki-instance-1" style="text;html=1;align=center;verticalAlign=middle;resizable=0;points=[];autosize=1;strokeColor=none;fillColor=none;" vertex="1" parent="1">
          <mxGeometry x="2562.62" y="-166" width="150" height="30" as="geometry" />
        </mxCell>
        <mxCell id="Sa6RIAV5YEHSp7vAq8mL-73" value="" style="edgeStyle=none;orthogonalLoop=1;jettySize=auto;html=1;rounded=0;entryX=1;entryY=0.5;entryDx=0;entryDy=0;exitX=0;exitY=0.5;exitDx=0;exitDy=0;" edge="1" parent="1" source="Sa6RIAV5YEHSp7vAq8mL-70" target="Sa6RIAV5YEHSp7vAq8mL-18">
          <mxGeometry width="100" relative="1" as="geometry">
            <mxPoint x="2460" y="-58" as="sourcePoint" />
            <mxPoint x="2560" y="-58" as="targetPoint" />
            <Array as="points" />
          </mxGeometry>
        </mxCell>
        <mxCell id="Sa6RIAV5YEHSp7vAq8mL-74" value="" style="edgeStyle=none;orthogonalLoop=1;jettySize=auto;html=1;rounded=0;entryX=0.997;entryY=0.472;entryDx=0;entryDy=0;entryPerimeter=0;" edge="1" parent="1" target="Sa6RIAV5YEHSp7vAq8mL-1">
          <mxGeometry width="100" relative="1" as="geometry">
            <mxPoint x="2470" y="-58" as="sourcePoint" />
            <mxPoint x="2530" y="-191" as="targetPoint" />
            <Array as="points">
              <mxPoint x="2470" y="-334" />
            </Array>
          </mxGeometry>
        </mxCell>
        <mxCell id="Sa6RIAV5YEHSp7vAq8mL-75" value="" style="edgeStyle=none;orthogonalLoop=1;jettySize=auto;html=1;rounded=0;entryX=0.998;entryY=0.582;entryDx=0;entryDy=0;entryPerimeter=0;" edge="1" parent="1" target="Sa6RIAV5YEHSp7vAq8mL-29">
          <mxGeometry width="100" relative="1" as="geometry">
            <mxPoint x="2470" y="-58" as="sourcePoint" />
            <mxPoint x="2540" y="142" as="targetPoint" />
            <Array as="points">
              <mxPoint x="2470" y="232" />
            </Array>
          </mxGeometry>
        </mxCell>
        <mxCell id="Sa6RIAV5YEHSp7vAq8mL-76" value="" style="edgeStyle=none;orthogonalLoop=1;jettySize=auto;html=1;rounded=0;exitX=0.43;exitY=1.056;exitDx=0;exitDy=0;exitPerimeter=0;entryX=0;entryY=0.6;entryDx=0;entryDy=0;entryPerimeter=0;" edge="1" parent="1" source="Sa6RIAV5YEHSp7vAq8mL-42" target="Sa6RIAV5YEHSp7vAq8mL-59">
          <mxGeometry width="100" relative="1" as="geometry">
            <mxPoint x="1440" y="322" as="sourcePoint" />
            <mxPoint x="1540" y="322" as="targetPoint" />
            <Array as="points">
              <mxPoint x="1577" y="552" />
            </Array>
          </mxGeometry>
        </mxCell>
        <mxCell id="Sa6RIAV5YEHSp7vAq8mL-77" value="" style="edgeStyle=none;orthogonalLoop=1;jettySize=auto;html=1;rounded=0;exitX=0.499;exitY=1.111;exitDx=0;exitDy=0;exitPerimeter=0;entryX=1.039;entryY=0.602;entryDx=0;entryDy=0;entryPerimeter=0;" edge="1" parent="1" source="Sa6RIAV5YEHSp7vAq8mL-71" target="Sa6RIAV5YEHSp7vAq8mL-59">
          <mxGeometry width="100" relative="1" as="geometry">
            <mxPoint x="2580" y="142" as="sourcePoint" />
            <mxPoint x="2650" y="692" as="targetPoint" />
            <Array as="points">
              <mxPoint x="2640" y="552" />
            </Array>
          </mxGeometry>
        </mxCell>
        <mxCell id="Sa6RIAV5YEHSp7vAq8mL-78" value="Centralised logging&lt;div&gt;system for all the&amp;nbsp;&lt;/div&gt;&lt;div&gt;instances and we can use this as&lt;/div&gt;&lt;div&gt;a data source for grafana&lt;/div&gt;" style="text;html=1;align=center;verticalAlign=middle;resizable=0;points=[];autosize=1;strokeColor=none;fillColor=none;" vertex="1" parent="1">
          <mxGeometry x="2712.62" y="-96" width="200" height="70" as="geometry" />
        </mxCell>
        <mxCell id="Sa6RIAV5YEHSp7vAq8mL-80" value="" style="edgeStyle=orthogonalEdgeStyle;rounded=0;orthogonalLoop=1;jettySize=auto;html=1;" edge="1" parent="1" source="Sa6RIAV5YEHSp7vAq8mL-79" target="Sa6RIAV5YEHSp7vAq8mL-60">
          <mxGeometry relative="1" as="geometry" />
        </mxCell>
        <mxCell id="Sa6RIAV5YEHSp7vAq8mL-79" value="" style="html=1;verticalLabelPosition=bottom;align=center;labelBackgroundColor=#ffffff;verticalAlign=top;strokeWidth=2;strokeColor=#0080F0;shadow=0;dashed=0;shape=mxgraph.ios7.icons.user;" vertex="1" parent="1">
          <mxGeometry x="2102.5" y="832" width="80" height="80" as="geometry" />
        </mxCell>
        <mxCell id="Sa6RIAV5YEHSp7vAq8mL-83" value="" style="outlineConnect=0;dashed=0;verticalLabelPosition=bottom;verticalAlign=top;align=center;html=1;shape=mxgraph.aws3.application_load_balancer;fillColor=#F58536;gradientColor=none;" vertex="1" parent="1">
          <mxGeometry x="2070" y="-688" width="100" height="100" as="geometry" />
        </mxCell>
        <mxCell id="Sa6RIAV5YEHSp7vAq8mL-85" value="" style="edgeStyle=none;orthogonalLoop=1;jettySize=auto;html=1;rounded=0;entryX=0.509;entryY=0.164;entryDx=0;entryDy=0;entryPerimeter=0;exitX=0.5;exitY=1;exitDx=0;exitDy=0;exitPerimeter=0;" edge="1" parent="1" source="Sa6RIAV5YEHSp7vAq8mL-83" target="Sa6RIAV5YEHSp7vAq8mL-81">
          <mxGeometry width="100" relative="1" as="geometry">
            <mxPoint x="2125" y="-578" as="sourcePoint" />
            <mxPoint x="2500" y="-558" as="targetPoint" />
            <Array as="points" />
          </mxGeometry>
        </mxCell>
        <mxCell id="Sa6RIAV5YEHSp7vAq8mL-88" value="&lt;font style=&quot;font-size: 18px;&quot;&gt;Virtual private network&lt;/font&gt;" style="text;html=1;align=center;verticalAlign=middle;resizable=0;points=[];autosize=1;strokeColor=none;fillColor=none;" vertex="1" parent="1">
          <mxGeometry x="1280" y="-638" width="200" height="40" as="geometry" />
        </mxCell>
        <mxCell id="Sa6RIAV5YEHSp7vAq8mL-90" value="" style="html=1;verticalLabelPosition=bottom;align=center;labelBackgroundColor=#ffffff;verticalAlign=top;strokeWidth=2;strokeColor=#0080F0;shadow=0;dashed=0;shape=mxgraph.ios7.icons.user;" vertex="1" parent="1">
          <mxGeometry x="2086.25" y="-968" width="67.5" height="60" as="geometry" />
        </mxCell>
        <mxCell id="Sa6RIAV5YEHSp7vAq8mL-92" value="" style="html=1;verticalLabelPosition=bottom;align=center;labelBackgroundColor=#ffffff;verticalAlign=top;strokeWidth=2;strokeColor=#0080F0;shadow=0;dashed=0;shape=mxgraph.ios7.icons.user;" vertex="1" parent="1">
          <mxGeometry x="1925" y="-968" width="67.5" height="60" as="geometry" />
        </mxCell>
        <mxCell id="Sa6RIAV5YEHSp7vAq8mL-93" value="" style="html=1;verticalLabelPosition=bottom;align=center;labelBackgroundColor=#ffffff;verticalAlign=top;strokeWidth=2;strokeColor=#0080F0;shadow=0;dashed=0;shape=mxgraph.ios7.icons.user;" vertex="1" parent="1">
          <mxGeometry x="2231.25" y="-968" width="67.5" height="60" as="geometry" />
        </mxCell>
        <mxCell id="Sa6RIAV5YEHSp7vAq8mL-94" value="Sunil" style="text;html=1;align=center;verticalAlign=middle;resizable=0;points=[];autosize=1;strokeColor=none;fillColor=none;" vertex="1" parent="1">
          <mxGeometry x="1933.75" y="-1010" width="50" height="30" as="geometry" />
        </mxCell>
        <mxCell id="Sa6RIAV5YEHSp7vAq8mL-95" value="Agasthya" style="text;html=1;align=center;verticalAlign=middle;resizable=0;points=[];autosize=1;strokeColor=none;fillColor=none;" vertex="1" parent="1">
          <mxGeometry x="2085" y="-1010" width="70" height="30" as="geometry" />
        </mxCell>
        <mxCell id="Sa6RIAV5YEHSp7vAq8mL-96" value="Ajay" style="text;html=1;align=center;verticalAlign=middle;resizable=0;points=[];autosize=1;strokeColor=none;fillColor=none;" vertex="1" parent="1">
          <mxGeometry x="2240" y="-1010" width="50" height="30" as="geometry" />
        </mxCell>
        <mxCell id="Sa6RIAV5YEHSp7vAq8mL-97" value="Hrushikesh" style="text;html=1;align=center;verticalAlign=middle;resizable=0;points=[];autosize=1;strokeColor=none;fillColor=none;" vertex="1" parent="1">
          <mxGeometry x="2105" y="922" width="80" height="30" as="geometry" />
        </mxCell>
        <mxCell id="Sa6RIAV5YEHSp7vAq8mL-98" value="" style="edgeStyle=none;orthogonalLoop=1;jettySize=auto;html=1;rounded=0;exitX=0.412;exitY=1.065;exitDx=0;exitDy=0;exitPerimeter=0;entryX=0.145;entryY=0.145;entryDx=0;entryDy=0;entryPerimeter=0;" edge="1" parent="1" source="Sa6RIAV5YEHSp7vAq8mL-92" target="Sa6RIAV5YEHSp7vAq8mL-83">
          <mxGeometry width="100" relative="1" as="geometry">
            <mxPoint x="2020" y="-818" as="sourcePoint" />
            <mxPoint x="2120" y="-818" as="targetPoint" />
            <Array as="points">
              <mxPoint x="1953" y="-768" />
            </Array>
          </mxGeometry>
        </mxCell>
        <mxCell id="Sa6RIAV5YEHSp7vAq8mL-99" value="" style="edgeStyle=none;orthogonalLoop=1;jettySize=auto;html=1;rounded=0;entryX=0.5;entryY=0;entryDx=0;entryDy=0;entryPerimeter=0;" edge="1" parent="1" target="Sa6RIAV5YEHSp7vAq8mL-83">
          <mxGeometry width="100" relative="1" as="geometry">
            <mxPoint x="2120" y="-904" as="sourcePoint" />
            <mxPoint x="2170" y="-848" as="targetPoint" />
            <Array as="points" />
          </mxGeometry>
        </mxCell>
        <mxCell id="Sa6RIAV5YEHSp7vAq8mL-100" value="" style="edgeStyle=none;orthogonalLoop=1;jettySize=auto;html=1;rounded=0;exitX=0.467;exitY=1.046;exitDx=0;exitDy=0;exitPerimeter=0;entryX=0.855;entryY=0.145;entryDx=0;entryDy=0;entryPerimeter=0;" edge="1" parent="1" source="Sa6RIAV5YEHSp7vAq8mL-93" target="Sa6RIAV5YEHSp7vAq8mL-83">
          <mxGeometry width="100" relative="1" as="geometry">
            <mxPoint x="2140" y="-838" as="sourcePoint" />
            <mxPoint x="2180" y="-678" as="targetPoint" />
            <Array as="points">
              <mxPoint x="2260" y="-768" />
            </Array>
          </mxGeometry>
        </mxCell>
        <mxCell id="Sa6RIAV5YEHSp7vAq8mL-101" value="Monitoring the system" style="text;html=1;align=center;verticalAlign=middle;resizable=0;points=[];autosize=1;strokeColor=none;fillColor=none;" vertex="1" parent="1">
          <mxGeometry x="2175" y="857" width="140" height="30" as="geometry" />
        </mxCell>
        <mxCell id="Sa6RIAV5YEHSp7vAq8mL-102" value="End Users" style="text;html=1;align=center;verticalAlign=middle;resizable=0;points=[];autosize=1;strokeColor=none;fillColor=none;" vertex="1" parent="1">
          <mxGeometry x="1845" y="-953" width="80" height="30" as="geometry" />
        </mxCell>
        <mxCell id="Sa6RIAV5YEHSp7vAq8mL-103" value="End Users" style="text;html=1;align=center;verticalAlign=middle;resizable=0;points=[];autosize=1;strokeColor=none;fillColor=none;" vertex="1" parent="1">
          <mxGeometry x="2005" y="-953" width="80" height="30" as="geometry" />
        </mxCell>
        <mxCell id="Sa6RIAV5YEHSp7vAq8mL-104" value="End Users" style="text;html=1;align=center;verticalAlign=middle;resizable=0;points=[];autosize=1;strokeColor=none;fillColor=none;" vertex="1" parent="1">
          <mxGeometry x="2298.75" y="-953" width="80" height="30" as="geometry" />
        </mxCell>
        <mxCell id="Sa6RIAV5YEHSp7vAq8mL-105" value="&lt;font style=&quot;font-size: 20px;&quot;&gt;For Metrics&lt;/font&gt;" style="text;html=1;align=center;verticalAlign=middle;resizable=0;points=[];autosize=1;strokeColor=none;fillColor=none;" vertex="1" parent="1">
          <mxGeometry x="1525.89" y="-231" width="120" height="40" as="geometry" />
        </mxCell>
        <mxCell id="Sa6RIAV5YEHSp7vAq8mL-106" value="&lt;font style=&quot;font-size: 20px;&quot;&gt;For Logs&lt;/font&gt;" style="text;html=1;align=center;verticalAlign=middle;resizable=0;points=[];autosize=1;strokeColor=none;fillColor=none;" vertex="1" parent="1">
          <mxGeometry x="2587.62" y="-238" width="100" height="40" as="geometry" />
        </mxCell>
        <mxCell id="Sa6RIAV5YEHSp7vAq8mL-113" value="" style="shape=image;verticalLabelPosition=bottom;labelBackgroundColor=default;verticalAlign=top;aspect=fixed;imageAspect=0;image=https://files.readme.io/e5e1b43-grafana-loki.png;" vertex="1" parent="1">
          <mxGeometry x="2592.62" y="-121" width="90" height="90" as="geometry" />
        </mxCell>
      </root>
    </mxGraphModel>
  </diagram>
</mxfile>
